Coordinates
version=1
nRows=16
nColumns=36
inDegrees=yes

Units are S.I. units (second, meters, Newtons, ...)
If the header above contains a line with 'inDegrees', this indicates whether rotational values are in degrees (yes) or radians (no).

endheader
time	pelvis_tilt	pelvis_list	pelvis_rotation	pelvis_tx	pelvis_ty	pelvis_tz	hip_flexion_r	hip_adduction_r	hip_rotation_r	knee_angle_r	knee_angle_r_beta	ankle_angle_r	subtalar_angle_r	mtp_angle_r	hip_flexion_l	hip_adduction_l	hip_rotation_l	knee_angle_l	knee_angle_l_beta	ankle_angle_l	subtalar_angle_l	mtp_angle_l	lumbar_extension	lumbar_bending	lumbar_rotation	arm_flex_r	arm_add_r	arm_rot_r	elbow_flex_r	pro_sup_r	arm_flex_l	arm_add_l	arm_rot_l	elbow_flex_l	pro_sup_l
      0.00000000	      1.09746584	     -1.67384270	      1.23925154	     -1.06327907	      1.39896174	     -0.03625243	     -0.99279530	      3.07192928	      2.16520085	     10.09306194	      0.17615716	      8.35346641	    -10.17636780	     -5.80264830	     -1.88158368	     -3.14743140	      0.67646594	      7.15966441	      0.12495972	     11.92986351	     -0.88379175	     -5.80264830	    -11.62828249	      0.51855317	     -0.63535740	     12.25912318	     -0.89747631	     15.44004691	     31.78890994	     84.69149152	     11.74260070	     -0.75318901	     16.70009479	     28.85465030	     74.31529200
      0.00416670	     -1.61879812	     -1.18226560	      1.45312280	     -1.06084518	      1.39353351	     -0.03607676	      2.27101596	      2.65975259	      2.57009570	     11.21578800	      0.19575243	     11.18056356	     -8.25348704	     -5.99222367	      1.66782442	     -2.11397209	      1.71975974	      7.93785975	      0.13854179	     11.28831291	     -0.41369674	     -5.99222367	     -7.78704891	     -0.01568287	     -0.88787420	     11.32746999	     -0.39639491	     14.07731842	     30.54904095	     82.68518772	     11.29444512	     -0.00019613	     14.25753524	     27.33892360	     72.51397520
      0.00833330	     -2.65681556	     -0.38057201	      1.40741398	     -1.05955092	      1.39434103	     -0.03380471	      2.70355446	      1.79929718	      1.73367831	      9.95261920	      0.17370597	     11.44671976	     -7.10040204	     -6.13246330	      2.52155348	     -1.35756789	      1.27085360	      7.74748919	      0.13521920	     11.04602360	      0.42987318	     -6.13246330	     -6.30107031	     -1.22870283	     -0.75333117	     11.17713224	      0.22241710	     13.92635320	     29.66546200	     82.10125501	     11.18454441	     -0.40178648	     14.24264577	     27.37611527	     71.81994445
      0.01250000	     -2.61001479	     -0.02267235	      1.34405830	     -1.05947778	      1.39392536	     -0.03436274	      2.40364041	      1.39439494	      1.52661740	      9.35733215	      0.16331626	     11.69229087	     -6.40560434	     -6.19132946	      2.02869940	     -0.98416059	      1.33853664	      7.14373349	      0.12468167	     10.68272412	      0.30301762	     -6.19132946	     -6.36627298	     -1.86622718	     -0.43890814	     11.16832073	      0.32178024	     14.25498103	     29.48103895	     81.56965502	     11.24791322	     -0.98266016	     15.03483262	     27.90581401	     71.56966153
      0.01666670	     -1.99487809	      0.19852447	      1.42473472	     -1.05848379	      1.39472903	     -0.03429347	      1.42383448	      1.16767583	      1.00695485	      8.79479730	      0.15349817	     12.03908192	     -5.23134941	     -6.34184170	      1.04352173	     -0.68042810	      1.59719787	      6.80921704	      0.11884326	     10.63200937	      0.39334164	     -6.34184170	     -7.19322548	     -2.04442452	     -0.31693998	     11.32509052	      0.10125460	     16.26721565	     29.45073362	     82.18786715	     11.88626965	     -1.91744061	     19.58274068	     28.23726277	     72.80782992
      0.02083330	     -1.72309234	      0.34233240	      1.44964204	     -1.05718464	      1.39436352	     -0.03298392	      0.90528891	      1.07422835	      1.02194246	      8.41293382	      0.14683339	     11.99026640	     -5.05534084	     -6.44174954	      0.59319341	     -0.53563822	      1.64757709	      6.64077460	      0.11590338	     10.73875896	      0.36929892	     -6.44174954	     -7.44915684	     -2.24132344	     -0.21094030	     11.27373846	      0.12627595	     16.56036019	     29.35439538	     81.69384625	     12.11088350	     -2.06396306	     20.33505183	     28.17660436	     72.83759105
      0.02500000	     -1.58086308	      0.40525406	      1.51055644	     -1.05772328	      1.39407502	     -0.03357554	      0.60580407	      1.00803149	      0.98945887	      8.14691690	      0.14219052	     12.02661301	     -4.78019782	     -6.55613567	      0.37626928	     -0.46838195	      1.81530318	      6.52188431	      0.11382835	     10.80863328	      0.29509780	     -6.55613567	     -7.59342599	     -2.35897496	     -0.09800773	     11.14906777	     -0.13507082	     17.63449188	     29.67831979	     82.12358023	     12.41186947	     -2.40874068	     22.54408504	     28.31885243	     74.26203809
      0.02916670	     -1.49293578	      0.45198371	      1.58684211	     -1.05759780	      1.39498051	     -0.03372835	      0.35397323	      0.97153139	      1.03483687	      7.90116821	      0.13790140	     11.97800649	     -4.59064555	     -7.07282194	      0.29811964	     -0.41099562	      2.05480543	      6.56731927	      0.11462134	     10.81066875	      0.15907488	     -7.07282194	     -7.70425941	     -2.46774721	     -0.10282611	     10.98827303	     -0.07107350	     17.11784051	     29.74590719	     84.56886917	     12.43529931	     -2.34838863	     21.91534814	     28.51279955	     79.02825504
      0.03333330	     -1.29239031	      0.40054696	      1.61394927	     -1.05617679	      1.39713851	     -0.03358540	     -0.07610735	      1.06161833	      1.20883971	      7.63520886	      0.13325953	     11.77456035	     -4.46961418	     -7.11417928	     -0.02211046	     -0.48771936	      2.09865421	      6.42786452	      0.11218740	     10.68275003	      0.22850074	     -7.11417928	     -7.88626188	     -2.40020444	     -0.24904498	     10.89245675	     -0.03498535	     17.35399733	     29.75620832	     83.53820741	     12.37253672	     -2.37190567	     22.25396260	     28.55987064	     78.32504956
      0.03750000	     -1.16135658	      0.41561516	      1.60912286	     -1.05710966	      1.39298509	     -0.03378302	     -0.28963776	      1.04672122	      1.26682895	      7.51296525	      0.13112598	     11.65154762	     -4.62099863	     -7.13025354	     -0.14804249	     -0.46408628	      2.20982460	      6.49033082	      0.11327764	     10.66587662	      0.10945719	     -7.13025354	     -8.00134937	     -2.39857860	     -0.25000899	     10.80683913	     -0.13865704	     17.88435673	     29.95541760	     83.41568708	     12.34887979	     -2.50542607	     22.96569729	     28.82097608	     78.73263871
      0.04166670	     -1.14167100	      0.46012379	      1.64361981	     -1.05685559	      1.39263378	     -0.03339079	     -0.38553829	      1.01592625	      1.25761784	      7.42138384	      0.12952758	     11.57961524	     -4.75645505	     -7.17601334	     -0.14171655	     -0.40793879	      2.35247285	      6.55568712	      0.11441832	     10.61746250	     -0.03809475	     -7.17601334	     -7.93147532	     -2.43529500	     -0.26506065	     10.69366399	     -0.13440101	     18.04179313	     29.90095528	     82.06496953	     12.27324188	     -2.53751238	     23.27577404	     28.76664250	     77.80933747
      0.04583330	     -1.23232394	      0.52069070	      1.71011985	     -1.05607989	      1.39358012	     -0.03372902	     -0.36067796	      0.94718850	      1.18689720	      7.32736669	      0.12788667	     11.49443720	     -4.73620772	     -7.25827041	     -0.00282246	     -0.32772401	      2.43610644	      6.65209595	      0.11610098	     10.56100462	     -0.18380968	     -7.25827041	     -7.71501703	     -2.43417096	     -0.32735890	     10.57326001	     -0.06563769	     18.34315604	     29.69808285	     79.37684190	     12.22954352	     -2.53050367	     23.79678438	     28.57530910	     75.89213189
      0.05000000	     -1.08551188	      0.48152271	      1.75733156	     -1.05536110	      1.39820729	     -0.03408252	     -0.65924656	      1.01749679	      1.22507791	      7.19895745	      0.12564551	     11.24624758	     -4.68537635	     -7.34013520	     -0.21311902	     -0.36936353	      2.51770726	      6.56354358	      0.11455545	     10.41823691	     -0.10658356	     -7.34013520	     -7.88517664	     -2.42666784	     -0.25677046	     10.26783421	     -0.06644414	     16.98792148	     29.90853192	     86.57094468	     12.26886183	     -2.55627199	     23.36441105	     28.34022669	     85.22474529
      0.05416670	     -1.03437692	      0.46514942	      1.71396737	     -1.05569719	      1.40102896	     -0.03443886	     -0.79810079	      1.01648300	      1.21617798	      6.97118061	      0.12167005	     11.00830718	     -4.65797794	     -7.36945212	     -0.39529407	     -0.37794940	      2.56586496	      6.31984965	      0.11030218	     10.06280416	     -0.20291442	     -7.36945212	     -7.92271918	     -2.37815111	     -0.34766430	     10.23609009	     -0.01750616	     17.18573581	     29.75053463	     84.31190831	     12.20489658	     -2.54627562	     23.50617839	     28.21937609	     83.11402652
      0.05833330	     -0.98373558	      0.41939840	      1.65868951	     -1.05600615	      1.39806526	     -0.03393902	     -0.94875604	      1.06471591	      1.39140214	      6.69038891	      0.11676931	     10.71797192	     -4.69720062	     -7.40119428	     -0.54962993	     -0.41416679	      2.60468711	      6.11664902	      0.10675566	      9.83775591	     -0.21363593	     -7.40119428	     -7.97489124	     -2.31748340	     -0.36501421	     10.15445559	     -0.03132817	     16.94057367	     29.75052349	     86.71676904	     12.20592457	     -2.63399611	     23.35327306	     28.19772000	     86.72819288
      0.06250000	     -1.01743502	      0.35973862	      1.62424889	     -1.05562147	      1.39694662	     -0.03361113	     -0.94559596	      1.12156073	      1.32708865	      6.54312554	      0.11419908	     10.65472911	     -4.52878726	     -7.40910876	     -0.56384629	     -0.47308514	      2.57329289	      5.99801652	      0.10468514	      9.77283387	     -0.07259615	     -7.40910876	     -7.88902996	     -2.23661638	     -0.46011148	     10.14480958	      0.02753740	     16.95873713	     29.52168709	     85.93676687	     12.18317792	     -2.64461440	     23.42729206	     27.99562959	     86.03273737
